<svg xmlns="http://www.w3.org/2000/svg" xml:space="preserve" viewBox="0 0 273.9 204.1">
  <style>
    .st3{fill:#231f20}.st4{fill:#84bd00}
  </style>
  <g id="Layer_1">
    <path d="M143.4 78.6c-.3-.1-1.2-.7-2.1-1-10.5-4.6-23.6-4.3-34.8-4.4L91.8 31.8c-2.2-6.2-4-12.9-8.1-18.2-3.6-4.7-8.8-8.2-14.3-10.3-4.1-1.6-11.6-4-15.8-1.5-2.8 1.6-4.1 6.7-5.3 9.5-2.9 6.7-5.7 13.5-8.6 20.2-8 18.8-16 37.5-24 56.3-5.2 12.3-10.4 24.6-15.7 36.9-.1.3 0 .5.2.7 2.7 3.2 6.5 4.5 10.6 4.6 4.4.1 9.4.8 13.8.2 3.3-.4 3.7-2.7 4.7-5.3 1.8-4.7 3.7-9.4 5.5-14 5-12.7 9.6-25.6 14.8-38.2C53 64.4 56.7 56.2 60.3 48c1.8-4.1 3.6-8.2 5.3-12.3.2-.4.4-.9.6-1.3.9 2.4 2.4 5 3.2 7 2.1 5.3 4.1 10.5 6.2 15.8C77 60.8 79 64.6 80 68.4c.3 1.2 1.3 2 .3 3.5-.5.8-1.5 1.1-2.6 1.2h-3.4c-4.9.1-10-.3-14.8.2-5.3.5-6.1 6.1-7.8 10.3-.7 1.7-2.3 4.3-2.1 6.1.3 2.4 3.8 3.9 5.7 4.6 2.1.7 4.5.8 6.9.7 0 31.6-.2 63.2 0 94.8.1 7.4 1.8 14.1 10.4 14.4 4.2.1 8.8.4 13 0 3.6-.3 5.1-2.4 5.2-5.8.5-17 0-34.1 0-51.1v-44.8c4.3 13.8 8.4 27.9 13.6 41.3 2.9 7.3 11.4 6.5 17.7 6.1 8-.4 17.7-.5 24.8-4.7 7.6-4.4 12.7-12.3 14.2-20.8 3.6-18.8-.8-37.2-17.7-45.8m-10.1 34c-.2 4.1-1.5 7.8-4.9 10.3-1.2.7-2.4 1.2-3.7 1.7-2.6-7.4-5.2-14.7-7.9-22.1-.6-1.6-1.6-3.5-1.9-5.2 0-.2-.1-.4-.1-.5 1.1.1 5.1.4 5.5.4 8.9.9 13.4 6.9 13 15.4" class="st3"/>
    <path d="M87.2 72.4c-.4-2.2-1.8-4.7-2.7-6.8-1.8-4.4-3.5-8.9-5.3-13.3-2.5-6.3-4.5-13.1-7.6-19.2-1.5-3-7-6.8-10.3-4.7-1.7 1-2.3 3.8-3.1 5.5-3.6 8.4-7.3 16.7-10.9 25.1-4.7 11-8.7 22.5-13.4 33.5-2.9 6.8-5.4 13.8-8.1 20.6-1.3 3.4-2.6 6.9-4 10.3-1.4 3.2-3.5 2.7-6.7 2.7-.5 0-4.4-.2-7.6-.2 2-4.8 4.1-9.6 6.1-14.3 13.8-32.3 27.6-64.7 41.3-97 1.1-2.6 2.3-7.5 5-9s7-.5 9.8.2c4.6 1.3 7.8 5.1 10 9.2 1 1.9 1.7 3.8 2.4 5.7C88 37 93.8 53.2 99.6 69.5c.4 1.2.9 2.4 1.3 3.6L87.3 73c-.1-.2-.1-.4-.1-.6" class="st4"/>
    <path d="M154.4 121.9c-1.7 7.7-6.6 15-13.4 19-6 3.5-13.9 3.9-20.7 4.5-2.8.2-5.5.3-8.3.3-1 0-1.6-1.8-1.9-2.9-2.8-8.7-5.7-17.4-8.5-26-2.1-6.5-4.3-13-6.4-19.5l14.2-.4 10.5 29.4c.6 1.7 4.7 3.8 6.4 3.4 3-.6 5.8-1.5 8.5-3.1 0 0 0-.1.1-.1s.1 0 .2-.1c7.9-5.6 5.9-18.6-.4-24.7-7.1-6.8-16.1-8.8-25.7-8.8H88.9c-2.6 0-4.3-.2-4.6 2.6-.2 2 0 4.1 0 6.1v85.2c0 4.7 1.7 12.2-4.6 13.1-3.2.4-6.7-.3-10.1-.3-.2-1.2-.7-2.6-.7-3.4-.1-1-.1-2.1-.1-3.1-.2-16.2 0-32.5 0-48.8V93.8c0-1.5-4.7-3.5-5.9-3.4-1.8 0-3.7.1-5.5.1h-.9c.7-2.9 2.9-6.6 3.6-8.5 1.5-3.7 3.3-5.1 7.3-5.2 2 0 4-.1 6-.1l33.2.3h1.9c10.9 0 22.1-.2 32.3 4.4 14 7.6 16.8 26.4 13.6 40.5" class="st4"/>
    <linearGradient id="SVGID_1_" x1="93.954" x2="91.751" y1="76.685" y2="64.192" gradientUnits="userSpaceOnUse">
      <stop offset="0"/>
      <stop offset="1" stop-opacity="0"/>
    </linearGradient>
    <path fill="url(#SVGID_1_)" d="M86.8 75.1h16.3l-2.8-12.4-17.7 3.5z"/>
    <linearGradient id="SVGID_2_" x1="-237.639" x2="-239.919" y1="-29.23" y2="-42.163" gradientTransform="rotate(173.967 -71.28 41.378)" gradientUnits="userSpaceOnUse">
      <stop offset="0"/>
      <stop offset="1" stop-opacity="0"/>
    </linearGradient>
    <path fill="url(#SVGID_2_)" d="m110.2 96.1-16.4.3 4.3 12.4 14.8-4.6z"/>
    <path d="M143.4 78.6c-.3-.1-1.2-.7-2.1-1-10.5-4.6-23.6-4.3-34.8-4.4L91.8 31.8c-2.2-6.2-6-16.9-10.1-22.2-3.6-4.7-4.8-6.2-10.3-8.3-4.1-1.6-13.6-2-17.8.5-2.8 1.6-4.1 6.7-5.3 9.5-2.9 6.7-5.7 13.5-8.6 20.2-8 18.8-16 37.5-24 56.3-5.2 12.3-10.4 24.6-15.7 36.9-.1.3 0 .5.2.7 2.7 3.2 6.5 4.5 10.6 4.6 4.4.1 9.4.8 13.8.2 3.3-.4 3.7-2.7 4.7-5.3 1.8-4.7 3.7-9.4 5.5-14 5-12.7 9.6-25.6 14.8-38.2C53 64.4 56.7 56.2 60.3 48c1.8-4.1 3.6-8.2 5.3-12.3.2-.4.4-.9.6-1.3.9 2.4 2.4 5 3.2 7 2.1 5.3 4.1 10.5 6.2 15.8C77 60.8 79 64.6 80 68.4c.3 1.2 1.3 2 .3 3.5-.5.8-1.5 1.1-2.6 1.2h-3.4c-4.9.1-10-.3-14.8.2-5.3.5-6.1 6.1-7.8 10.3-.7 1.7-2.3 4.3-2.1 6.1.3 2.4 3.8 3.9 5.7 4.6 2.1.7 4.5.8 6.9.7 0 31.6-.2 63.2 0 94.8.1 7.4 1.8 14.1 10.4 14.4 4.2.1 8.8.4 13 0 3.6-.3 5.1-2.4 5.2-5.8.5-17 0-34.1 0-51.1v-44.8c4.3 13.8 8.4 27.9 13.6 41.3 2.9 7.3 11.4 6.5 17.7 6.1 8-.4 17.7-.5 24.8-4.7 7.6-4.4 12.7-12.3 14.2-20.8 3.6-18.8-.8-37.2-17.7-45.8M79.2 52.3c-2.5-6.3-4.5-13.1-7.6-19.2-1.5-3-7-6.8-10.3-4.7-1.7 1-2.3 3.8-3.1 5.5-3.6 8.4-7.3 16.7-10.9 25.1-4.7 11-8.7 22.5-13.4 33.5-2.9 6.8-5.4 13.8-8.1 20.6-1.3 3.4-2.6 6.9-4 10.3-1.4 3.2-3.5 2.7-6.7 2.7-.5 0-4.4-.2-7.6-.2 2-4.8 4.1-9.6 6.1-14.3 13.8-32.3 27.6-64.7 41.3-97 1.1-2.6 2.3-7.5 5-9s7-.5 9.8.2c4.6 1.3 7.8 5.1 10 9.2 1 1.9 1.7 3.8 2.4 5.7C88 37 93.8 53.2 99.6 69.5c.4 1.2.9 2.4 1.3 3.6L87.3 73c0-.2 0-.4-.1-.6-.4-2.2-1.8-4.7-2.7-6.8-1.8-4.4-3.5-8.9-5.3-13.3m75.2 69.6c-1.7 7.7-6.6 15-13.4 19-6 3.5-13.9 3.9-20.7 4.5-2.8.2-5.5.3-8.3.3-1 0-1.6-1.8-1.9-2.9-2.8-8.7-5.7-17.4-8.5-26-2.1-6.5-4.3-13-6.4-19.5l14.2-.4 10.5 29.4c.6 1.7 4.7 3.8 6.4 3.4 3-.6 5.8-1.5 8.5-3.1 0 0 0-.1.1-.1s.1 0 .2-.1c7.9-5.6 5.9-18.6-.4-24.7-7.1-6.8-16.1-8.8-25.7-8.8H88.9c-2.6 0-4.3-.2-4.6 2.6-.2 2 0 4.1 0 6.1v85.2c0 4.7 1.7 12.2-4.6 13.1-3.2.4-6.7-.3-10.1-.3-.2-1.2-.7-2.6-.7-3.4-.1-1-.1-2.1-.1-3.1-.2-16.2 0-32.5 0-48.8V93.8c0-1.5-4.7-3.5-5.9-3.4-1.8 0-3.7.1-5.5.1h-.9c.7-2.9 2.9-6.6 3.6-8.5 1.5-3.7 3.3-5.1 7.3-5.2 2 0 4-.1 6-.1l33.2.3h1.9c10.9 0 22.1-.2 32.3 4.4 14 7.6 16.8 26.4 13.6 40.5m-39.5-25.2c1.1.1 5.1.4 5.5.4 8.8 1 13.4 6.9 12.9 15.4-.2 4.1-1.5 7.8-4.9 10.3-1.2.7-2.4 1.2-3.7 1.7-2.6-7.4-5.2-14.7-7.9-22.1-.6-1.6-1.6-3.5-1.9-5.2.1-.1.1-.3 0-.5"/>
    <path d="M150.6 68.7V26.3c0-1.4-.5-2.7-1.6-3.8s-2.4-1.6-3.9-1.6h-2.6v24.2c0 3.5-.6 6.6-1.7 9.1-1.2 2.6-2.9 4.5-5.1 5.8s-4.7 1.9-7.5 1.9q-6 0-9.3-3.9-3.3-3.75-3.3-11.1V26.6c0-1.5-.5-2.8-1.7-4-1.1-1.1-2.4-1.7-4-1.7h-2.5v27.5c0 4.8.8 8.9 2.4 12s3.7 5.3 6.5 6.7c2.9 1.5 6.2 2.2 9.9 2.2q5.1 0 9.3-2.4c1.9-1 3.4-2.4 4.7-4.1l2.7-3.5v9.4zM158 21.3c-1 0-1.8.4-2.6 1.1-.7.7-1.1 1.6-1.1 2.6v2.8l.1.1h7.7V54c0 5.2 1.3 9.1 3.8 11.7 2.5 2.5 6.2 3.8 10.9 3.8 1.8 0 3.6-.2 5.3-.7 1.2-.4 2.4-.9 3.4-1.6.1 0 .1-.1.1-.1l-.9-2.3c-.2-.8-.7-1.3-1.5-1.8-.8-.4-1.7-.6-2.5-.4h-.1c-.7.1-1.5.1-2.3.1-2.6 0-4.6-.8-6-2.5-1.4-1.6-2.1-3.8-2.1-6.7V27.8h8.9c1.1 0 2-.4 2.7-1.1s1.1-1.6 1.1-2.7v-2.6c0-.1-.1-.1-.2-.1h-12.5v-6.1c0-1.5-.5-2.8-1.6-3.9s-2.4-1.6-3.9-1.6h-2.4l-.1.1v11.5z"/>
    <path d="M225.6 31.6c-2-3.6-4.8-6.5-8.4-8.6-3.5-2.1-7.6-3.2-12.2-3.2-4.5 0-8.6 1.1-12.2 3.2-3.5 2.1-6.3 5-8.4 8.6-2 3.6-3 8-3 12.9 0 4.7 1 9 3 12.7q3 5.55 8.4 8.7c3.6 2.1 7.7 3.2 12.1 3.2 4.5 0 8.6-1.1 12.2-3.2q5.25-3.15 8.4-8.7c2-3.7 3-7.9 3-12.7.1-4.9-.9-9.2-2.9-12.9m-7 21.9c-1.3 2.7-3.2 4.8-5.6 6.2-2.4 1.5-5.1 2.2-8 2.2s-5.6-.7-7.9-2.2-4.2-3.5-5.6-6.2c-1.3-2.6-2-5.7-2-9.1 0-3.5.7-6.6 2-9.1 1.4-2.6 3.2-4.7 5.6-6.1 2.3-1.5 5-2.2 7.9-2.2s5.6.7 8 2.2 4.3 3.5 5.6 6.2c1.3 2.6 1.9 5.6 1.9 9.1.1 3.4-.6 6.4-1.9 9M170.3 99.8c-.1 0-.3 0-.6.3s-.3.4-.3.6v46.1c0 .3.1.5.2.6q.3.3.6.3h6.2q.3 0 .6-.3c.1-.1.2-.3.2-.6V106c0-1.8-.6-3.3-1.9-4.5s-2.7-1.8-4.4-1.8h-.6zM173.4 83.1c-1.6 0-3 .5-4 1.6-1.1 1.1-1.6 2.4-1.6 4s.5 3 1.6 4c1 1.1 2.3 1.6 3.9 1.6 1.7 0 3-.5 4.1-1.6s1.6-2.5 1.6-4.1-.5-2.9-1.5-4c-1.1-1-2.4-1.5-4.1-1.5M186.2 83.9c-.3 0-.5.1-.7.3s-.3.4-.3.7v61.8c0 .2 0 .3.3.6.2.2.4.3.7.3h6.5c.3 0 .5-.1.7-.3.3-.3.3-.4.3-.6V91.4c0-2.1-.7-3.8-2.2-5.3-1.6-1.5-3.3-2.2-5.3-2.2M241.6 109.9c-2-3.6-4.8-6.5-8.4-8.6-3.5-2.1-7.6-3.2-12.2-3.2-4.5 0-8.6 1.1-12.2 3.2-3.5 2.1-6.3 5-8.4 8.6-2 3.6-3 8-3 12.9 0 4.7 1 9 3 12.7q3 5.55 8.4 8.7c3.6 2.1 7.7 3.2 12.1 3.2 4.5 0 8.6-1.1 12.2-3.2q5.25-3.15 8.4-8.7c2-3.7 3-7.9 3-12.7.1-4.9-.9-9.2-2.9-12.9m-7 22c-1.3 2.7-3.2 4.8-5.6 6.2-2.4 1.5-5.1 2.2-8 2.2s-5.6-.7-7.9-2.2-4.2-3.5-5.6-6.2c-1.3-2.6-2-5.7-2-9.1 0-3.5.7-6.6 2-9.1 1.3-2.6 3.2-4.7 5.6-6.1 2.3-1.5 5-2.2 7.9-2.2s5.6.7 8 2.2 4.3 3.5 5.6 6.2c1.3 2.6 1.9 5.6 1.9 9.1 0 3.3-.6 6.3-1.9 9M246.3 99.6c-1 0-1.8.4-2.6 1.1-.7.7-1.1 1.6-1.1 2.6v2.8l.1.1h7.7v26.1c0 5.2 1.3 9.1 3.8 11.7 2.5 2.5 6.2 3.8 10.9 3.8 1.8 0 3.6-.2 5.3-.7 1.2-.4 2.4-.9 3.4-1.6l.1-.1-.9-2.3c-.2-.8-.7-1.3-1.5-1.8-.8-.4-1.7-.6-2.5-.4h-.1c-.7.1-1.4.1-2.3.1-2.6 0-4.6-.8-6-2.5-1.4-1.6-2.1-3.8-2.1-6.7v-25.7h8.9c1.1 0 2-.4 2.7-1.1s1.1-1.6 1.1-2.7v-2.6c0-.1-.1-.1-.2-.1h-12.5v-6.1c0-1.5-.5-2.8-1.6-3.9S254.5 88 253 88h-2.4l-.1.1v11.5z"/>
  </g>
</svg>
