<?xml version="1.0" encoding="utf-8"?>
<!-- Generator: Adobe Illustrator 22.0.1, SVG Export Plug-In . SVG Version: 6.00 Build 0)  -->
<svg version="1.1" xmlns="http://www.w3.org/2000/svg" xmlns:xlink="http://www.w3.org/1999/xlink" x="0px" y="0px"
	 viewBox="0 0 368.2 214.1" style="enable-background:new 0 0 368.2 214.1;" xml:space="preserve">
<style type="text/css">
	.st0{enable-background:new    ;}
	.st1{fill-rule:evenodd;clip-rule:evenodd;fill:#333132;}
	.st2{fill-rule:evenodd;clip-rule:evenodd;fill:#1BA1D1;}
	.st3{fill-rule:evenodd;clip-rule:evenodd;fill:#9D9FA2;}
	.st4{fill:#FFFFFF;}
	.st5{fill:#333132;}
</style>
<g id="BG_1_" class="st0">
	<g id="BG">
		<g>
			<polygon class="st1" points="368.2,102.5 293.3,27.2 82.1,27.2 82.1,0 14.7,11.6 0,42.1 0,214.1 304.5,214.1 357.9,160.1 
				334.5,136.4 			"/>
		</g>
	</g>
</g>
<g id="Shape_2_1_" class="st0">
	<g id="Shape_2">
		<g>
			<path class="st2" d="M206.3,73.2H78.9l-7.3,15.9H181l-42.1,91.1h127.4l7.2-15.9H164L206.3,73.2z M96.7,131.3H69.8l7.9-17.3H105
				l7-15.8H67.3l-37.9,82h17.3l15.6-33.3h27.4L96.7,131.3z M117,146.9h27.3l7.1-15.6h-26.7l7.6-17.3h27.3l7.4-15.8h-44.8l-38,82H129
				l7.1-15.9h-26.8L117,146.9z M223.1,155.3l38-82.2h-17.6L212.8,139h-9.7l30.3-65.9h-17.3l-38,82.2H223.1z M296.1,73.2l-22.7,32.6
				l15-32.6H271l-38,82.2h17.8l15-34.1l-4,34.1h15.9l4.1-34.1l34-48.1H296.1z"/>
		</g>
	</g>
</g>
<g id="Shape_1_1_" class="st0">
	<g id="Shape_1">
		<g>
			<path class="st3" d="M289.7,36.1H73.2V10.8l-52.4,8.9l-7.5,16.3l59.9,28.1h244.4L289.7,36.1z M9.1,200.7L69.4,72.4L9.1,44.6
				V200.7z M355.3,102.2l-29.1-29.1l-61.5,132.1h36.5l44.2-44.5l-23.6-24.3L355.3,102.2z"/>
		</g>
	</g>
</g>
<g id="TECHNOLOGIES">
	<g>
		<polygon class="st4" points="24.2,191.6 29.8,191.6 23.5,205 26.8,205 33.1,191.6 38.7,191.6 39.9,189 25.4,189 		"/>
		<polygon class="st4" points="48.8,189 47.4,189 40,205 41.3,205 43.3,205 53.2,205 54.4,202.5 44.5,202.5 46.4,198.3 54.8,198.3 
			56,195.8 47.6,195.8 49.6,191.6 59.5,191.6 60.7,189 50.8,189 		"/>
		<path class="st4" d="M77.9,189.5c-0.8-0.4-1.8-0.6-3-0.6c-1.5,0-2.9,0.2-4.2,0.7c-1.3,0.5-2.5,1.2-3.5,2.1c-1,0.9-1.8,2-2.4,3.2
			l-2.1,4.4c-0.6,1.2-0.8,2.3-0.6,3.2c0.2,0.9,0.7,1.6,1.5,2.1s1.3,0.7,1.3,0.7s0.7,0,2.2,0c1.2,0,2.4-0.2,3.6-0.6
			c1.2-0.4,2.3-1,3.3-1.8s1.9-1.7,2.6-2.7h-3.4c-0.4,0.5-0.9,1-1.4,1.4c-0.5,0.4-1.1,0.7-1.7,0.9c-0.6,0.2-1.2,0.3-1.8,0.3
			c-0.8,0-1.4-0.1-1.8-0.4c-0.4-0.3-0.7-0.7-0.8-1.2c-0.1-0.5,0.1-1.1,0.4-1.8l2.1-4.4c0.3-0.7,0.8-1.3,1.3-1.8
			c0.5-0.5,1.2-0.9,1.8-1.2c0.7-0.3,1.4-0.4,2.2-0.4c0.6,0,1.1,0.1,1.5,0.3c0.4,0.2,0.7,0.5,0.9,0.9c0.2,0.4,0.2,0.8,0.2,1.3h3.4
			c0.3-1.1,0.2-2-0.1-2.7S78.7,189.9,77.9,189.5z"/>
		<polygon class="st4" points="100.5,189 97.3,195.9 89.4,195.9 92.6,189 89.3,189 81.8,205 85.1,205 88.2,198.4 96.2,198.4 
			93.1,205 96.4,205 103.9,189 		"/>
		<polygon class="st4" points="117.6,200.9 114.8,189 111.2,189 103.7,205 106.9,205 112.4,193.4 115.3,205 118.9,205 126.4,189 
			123.2,189 		"/>
		<path class="st4" d="M144.6,189.6c-0.9-0.5-2-0.7-3.5-0.7s-2.8,0.2-4.1,0.7c-1.3,0.5-2.5,1.2-3.5,2.1c-1,0.9-1.8,1.9-2.4,3.1
			l-2.1,4.5c-0.5,1.2-0.7,2.2-0.5,3.1c0.2,0.9,0.7,1.6,1.6,2.1c0.9,0.5,2,0.7,3.5,0.7s2.8-0.2,4.1-0.7c1.3-0.5,2.5-1.2,3.5-2.1
			c1-0.9,1.8-1.9,2.4-3.1l2.1-4.5c0.5-1.2,0.7-2.2,0.5-3.1C146,190.8,145.4,190.1,144.6,189.6z M142.2,194.7l-2.2,4.7
			c-0.3,0.6-0.7,1.2-1.3,1.7c-0.5,0.5-1.2,0.9-1.9,1.1c-0.7,0.3-1.4,0.4-2.2,0.4s-1.4-0.1-1.8-0.4c-0.5-0.3-0.7-0.6-0.8-1.1
			s0-1.1,0.3-1.7l2.2-4.7c0.3-0.6,0.7-1.2,1.3-1.7c0.5-0.5,1.2-0.9,1.9-1.1c0.7-0.3,1.4-0.4,2.2-0.4s1.4,0.1,1.8,0.4
			c0.5,0.3,0.7,0.6,0.8,1.1C142.6,193.5,142.5,194,142.2,194.7z"/>
		<polygon class="st4" points="159,189 155.7,189 148.2,205 149.8,205 151.5,205 161.5,205 162.7,202.5 152.7,202.5 		"/>
		<path class="st4" d="M185.5,189.6c-0.9-0.5-2-0.7-3.5-0.7s-2.8,0.2-4.1,0.7c-1.3,0.5-2.5,1.2-3.5,2.1c-1,0.9-1.8,1.9-2.4,3.1
			l-2.1,4.5c-0.5,1.2-0.7,2.2-0.5,3.1c0.2,0.9,0.7,1.6,1.6,2.1c0.9,0.5,2,0.7,3.5,0.7s2.8-0.2,4.1-0.7c1.3-0.5,2.5-1.2,3.5-2.1
			c1-0.9,1.8-1.9,2.4-3.1l2.1-4.5c0.5-1.2,0.7-2.2,0.5-3.1C186.9,190.8,186.3,190.1,185.5,189.6z M183.1,194.7l-2.2,4.7
			c-0.3,0.6-0.7,1.2-1.3,1.7c-0.5,0.5-1.2,0.9-1.9,1.1c-0.7,0.3-1.4,0.4-2.2,0.4s-1.4-0.1-1.8-0.4c-0.5-0.3-0.7-0.6-0.8-1.1
			s0-1.1,0.3-1.7l2.2-4.7c0.3-0.6,0.7-1.2,1.3-1.7c0.5-0.5,1.2-0.9,1.9-1.1c0.7-0.3,1.4-0.4,2.2-0.4s1.4,0.1,1.8,0.4
			c0.5,0.3,0.7,0.6,0.8,1.1C183.5,193.5,183.4,194,183.1,194.7z"/>
		<path class="st4" d="M207,189.5c-0.8-0.4-1.8-0.6-3-0.6c-1.4,0-2.8,0.2-4.1,0.7c-1.3,0.5-2.5,1.2-3.5,2.1c-1,0.9-1.8,1.9-2.4,3.1
			l-2.2,4.7c-0.5,1.1-0.7,2.1-0.5,3c0.2,0.9,0.8,1.5,1.6,2c0.9,0.5,2.1,0.7,3.5,0.7c1.4,0,2.8-0.2,4.1-0.7c1.3-0.5,2.5-1.2,3.5-2.1
			c1-0.9,1.8-2,2.4-3.1l1.4-3h-7l-1.2,2.5h3.6l-0.2,0.5c-0.3,0.7-0.7,1.3-1.3,1.8c-0.5,0.5-1.2,0.9-1.9,1.1
			c-0.7,0.3-1.4,0.4-2.2,0.4c-0.8,0-1.4-0.1-1.9-0.4c-0.5-0.2-0.8-0.6-0.9-1c-0.1-0.5,0-1,0.3-1.6l2.2-4.7c0.3-0.7,0.7-1.2,1.3-1.7
			c0.5-0.5,1.2-0.9,1.9-1.2c0.7-0.3,1.4-0.4,2.2-0.4c0.5,0,1,0.1,1.4,0.2c0.4,0.2,0.7,0.4,0.9,0.7c0.2,0.3,0.3,0.7,0.2,1.1h3.6
			c0.2-0.9,0.1-1.8-0.2-2.5C208.3,190.4,207.8,189.8,207,189.5z"/>
		<polygon class="st4" points="211,205 214.4,205 221.8,189 218.5,189 		"/>
		<polygon class="st4" points="241.5,191.6 242.6,189 232.7,189 230.8,189 229.4,189 221.9,205 223.3,205 225.2,205 235.2,205 
			236.4,202.5 226.4,202.5 228.4,198.3 236.8,198.3 237.9,195.8 229.5,195.8 231.5,191.6 		"/>
		<path class="st4" d="M251.3,193.5c0.3-0.7,0.9-1.2,1.8-1.6c0.9-0.4,1.9-0.6,3.2-0.6c0.8,0,1.5,0.1,2.2,0.3c0.7,0.2,1.3,0.6,1.9,1
			l2.6-2.2c-0.5-0.4-1-0.7-1.6-0.9c-0.6-0.2-1.2-0.4-1.9-0.6c-0.7-0.1-1.4-0.2-2.1-0.2c-1.5,0-2.9,0.2-4.2,0.6s-2.4,0.9-3.3,1.6
			s-1.6,1.6-2.1,2.6l0,0c-0.5,1.1-0.6,2-0.3,2.7c0.3,0.6,0.9,1.1,1.6,1.3c0.8,0.2,1.8,0.5,3,0.6l0.2,0c0,0,0.1,0,0.1,0
			c0,0,0.1,0,0.1,0c0.8,0.1,1.4,0.2,1.9,0.4c0.5,0.1,0.8,0.3,1,0.6c0.2,0.3,0.2,0.7,0,1.2l0,0c-0.3,0.7-1,1.2-1.9,1.6
			c-0.9,0.4-2.1,0.6-3.4,0.6c-1.1,0-2-0.1-2.9-0.4c-0.8-0.3-1.5-0.7-2.1-1.2l-2.7,2.1c0.4,0.4,1,0.8,1.6,1.1
			c0.6,0.3,1.4,0.5,2.2,0.7c0.8,0.1,1.2,0.2,1.2,0.2s0.5,0,1.5,0c1.6,0,3-0.2,4.3-0.6c1.3-0.4,2.4-0.9,3.3-1.6
			c0.9-0.7,1.6-1.6,2.1-2.6l0,0c0.5-1.1,0.6-1.9,0.3-2.5c-0.3-0.6-0.8-1.1-1.5-1.3c-0.7-0.3-1.6-0.5-2.8-0.7c0,0-0.1,0-0.1,0
			c-0.1,0-0.1,0-0.1,0c0,0-0.1,0-0.1,0c0,0-0.1,0-0.1,0c-0.9-0.2-1.6-0.3-2.1-0.4c-0.5-0.1-0.8-0.4-1.1-0.6
			C251,194.4,251,194,251.3,193.5L251.3,193.5z"/>
	</g>
</g>
<g id="EST._2023">
	<g>
		<polygon class="st5" points="229.2,173.3 230,171.7 227.7,171.7 228.9,169.3 231.5,169.3 232.3,167.7 229.6,167.7 228.7,167.7 
			228,167.7 223.3,177.3 224,177.3 225,177.3 227.6,177.3 228.4,175.7 225.7,175.7 226.9,173.3 		"/>
		<path class="st5" d="M234.4,171.8C234.4,171.8,234.4,171.8,234.4,171.8C234.4,171.8,234.3,171.8,234.4,171.8
			c-0.1-0.1-0.1-0.1-0.2-0.1s-0.1,0-0.1-0.1c-0.2-0.1-0.3-0.2-0.4-0.3c-0.1-0.1-0.2-0.2-0.2-0.3c0-0.1,0-0.3,0.1-0.5l0.3-0.6
			c0.1-0.2,0.3-0.4,0.5-0.5c0.2-0.1,0.4-0.2,0.7-0.2c0.2,0,0.4,0.1,0.4,0.2c0.1,0.1,0,0.3-0.1,0.6l-0.3,0.5l1.7,0l0.3-0.5
			c0.2-0.5,0.4-0.9,0.3-1.3c0-0.4-0.2-0.6-0.4-0.8c-0.3-0.2-0.7-0.3-1.2-0.3c-0.5,0-1,0.1-1.4,0.3c-0.5,0.2-0.9,0.5-1.2,0.8
			c-0.4,0.3-0.7,0.8-0.9,1.3l-0.2,0.5c-0.2,0.5-0.3,0.9-0.3,1.2c0,0.3,0.1,0.6,0.3,0.8s0.4,0.4,0.7,0.6l0.1,0c0,0,0,0,0,0s0,0,0,0
			c0.2,0.1,0.4,0.2,0.5,0.3c0.1,0.1,0.2,0.2,0.2,0.3c0,0.1,0,0.3-0.1,0.5l-0.4,0.8c-0.1,0.2-0.3,0.4-0.5,0.6
			c-0.2,0.1-0.4,0.2-0.7,0.2c-0.2,0-0.4-0.1-0.5-0.2s0-0.3,0.1-0.6l0.3-0.5l-1.7,0l-0.3,0.5c-0.2,0.5-0.4,0.9-0.3,1.3
			c0,0.4,0.2,0.6,0.5,0.8c0.3,0.2,0.7,0.3,1.2,0.3c0.5,0,1-0.1,1.4-0.3c0.5-0.2,0.9-0.5,1.2-0.8c0.4-0.4,0.7-0.8,0.9-1.3l0.4-0.8
			c0.2-0.5,0.3-0.8,0.3-1.1c0-0.3-0.1-0.5-0.2-0.7C234.9,172.2,234.7,172,234.4,171.8z"/>
		<polygon class="st5" points="242.8,169.3 243.6,167.7 238.7,167.7 237.9,169.3 239.5,169.3 235.6,177.3 237.3,177.3 241.2,169.3 
					"/>
		<polygon class="st5" points="238.5,177.3 240.2,177.3 241,175.6 239.3,175.6 		"/>
		<path class="st5" d="M249.5,171.2c0.4-0.5,0.7-0.9,0.8-1.2l0.1-0.1c0.3-0.5,0.4-0.9,0.4-1.3c0-0.3-0.1-0.6-0.4-0.8
			c-0.3-0.2-0.6-0.3-1.2-0.3c-0.5,0-1,0.1-1.4,0.3c-0.4,0.2-0.8,0.5-1.2,0.8c-0.3,0.4-0.7,0.8-0.9,1.4l-0.2,0.3h1.7l0.2-0.3
			c0.1-0.3,0.3-0.5,0.5-0.7c0.2-0.1,0.4-0.2,0.6-0.2c0.2,0,0.3,0.1,0.3,0.2c0,0.1,0,0.3-0.1,0.5l-0.1,0.1c-0.1,0.3-0.4,0.7-0.7,1.1
			c-0.3,0.4-0.8,0.8-1.3,1.3l-3.6,3.4l-0.7,1.5h4.5l0.8-1.6h-2.5l2.9-2.9C248.6,172.2,249.1,171.7,249.5,171.2z"/>
		<path class="st5" d="M255.9,169.9c0.4-0.7,0.4-1.3,0.2-1.7c-0.2-0.4-0.7-0.6-1.4-0.6s-1.4,0.2-2,0.6c-0.6,0.4-1.1,1-1.4,1.7
			l-2.5,5.2c-0.4,0.7-0.4,1.3-0.2,1.7c0.2,0.4,0.7,0.6,1.4,0.6s1.4-0.2,2-0.6c0.6-0.4,1.1-1,1.4-1.7L255.9,169.9z M251.8,175
			c-0.1,0.2-0.2,0.4-0.4,0.5c-0.2,0.1-0.3,0.2-0.5,0.2s-0.3-0.1-0.3-0.2c0-0.1,0-0.3,0.1-0.5l2.5-5.2c0.1-0.2,0.2-0.4,0.4-0.5
			c0.2-0.1,0.3-0.2,0.5-0.2c0.2,0,0.3,0.1,0.3,0.2c0,0.1,0,0.3-0.1,0.5L251.8,175z"/>
		<path class="st5" d="M260.7,171.2c0.4-0.5,0.7-0.9,0.8-1.2l0.1-0.1c0.3-0.5,0.4-0.9,0.4-1.3c0-0.3-0.1-0.6-0.4-0.8
			c-0.3-0.2-0.6-0.3-1.2-0.3c-0.5,0-1,0.1-1.4,0.3c-0.4,0.2-0.8,0.5-1.2,0.8c-0.3,0.4-0.7,0.8-0.9,1.4l-0.2,0.3h1.7l0.2-0.3
			c0.1-0.3,0.3-0.5,0.5-0.7s0.4-0.2,0.6-0.2c0.2,0,0.3,0.1,0.3,0.2c0,0.1,0,0.3-0.1,0.5l-0.1,0.1c-0.1,0.3-0.4,0.7-0.7,1.1
			c-0.3,0.4-0.8,0.8-1.3,1.3l-3.6,3.4l-0.7,1.5h4.5l0.8-1.6h-2.5l2.9-2.9C259.8,172.2,260.3,171.7,260.7,171.2z"/>
		<path class="st5" d="M267,168.1c-0.2-0.4-0.6-0.5-1.3-0.5c-0.5,0-0.9,0.1-1.3,0.2c-0.4,0.2-0.8,0.4-1.1,0.7s-0.6,0.7-0.8,1.1
			l-0.3,0.7h1.7l0.3-0.7c0.1-0.1,0.1-0.2,0.2-0.3c0.1-0.1,0.2-0.1,0.3-0.2c0.1,0,0.2-0.1,0.3-0.1c0.1,0,0.2,0,0.3,0.1
			c0,0.1,0,0.2-0.1,0.4l-0.6,1.2c-0.1,0.2-0.2,0.3-0.3,0.4c-0.1,0.1-0.3,0.2-0.4,0.2h-0.5l-0.8,1.6h0.5c0.2,0,0.3,0.1,0.4,0.2
			c0.1,0.1,0,0.3-0.1,0.5l-0.7,1.4c-0.1,0.2-0.2,0.4-0.4,0.5c-0.2,0.1-0.3,0.2-0.5,0.2c-0.1,0-0.2,0-0.3-0.1c-0.1,0-0.1-0.1-0.1-0.2
			c0-0.1,0-0.2,0.1-0.3l0.3-0.6H260l-0.3,0.6c-0.2,0.5-0.3,0.8-0.3,1.2c0,0.3,0.2,0.6,0.4,0.7c0.3,0.2,0.6,0.3,1.1,0.3
			c0.5,0,0.9-0.1,1.4-0.3c0.4-0.2,0.8-0.4,1.2-0.8c0.3-0.3,0.6-0.7,0.9-1.2l0.7-1.5c0.2-0.3,0.2-0.6,0.1-0.9
			c-0.1-0.2-0.3-0.4-0.5-0.5c0.4-0.2,0.7-0.4,1-0.6c0.3-0.2,0.5-0.5,0.6-0.7l0.6-1.3C267.1,169,267.2,168.5,267,168.1z"/>
	</g>
</g>
</svg>
