<?xml version="1.0" encoding="utf-8"?>
<!-- Generator: Adobe Illustrator 22.0.1, SVG Export Plug-In . SVG Version: 6.00 Build 0)  -->
<svg version="1.1" id="Layer_1" xmlns="http://www.w3.org/2000/svg" xmlns:xlink="http://www.w3.org/1999/xlink" x="0px" y="0px"
	 viewBox="0 0 689.9 689.8" style="enable-background:new 0 0 689.9 689.8;" xml:space="preserve">
<g>
	<ellipse transform="matrix(0.9792 -0.203 0.203 0.9792 -62.8514 77.22)" cx="344.9" cy="345" rx="81.7" ry="81.7"/>
	<path d="M345,0C155.8-0.4,0.9,153,0,343.3c-0.9,189.5,151.8,346,343.9,346.6c191.3,0.6,346-153.9,346-344.7
		C690,152.2,533.3-0.4,345,0z M610.1,471.6l-19.4,32.6c-12.9,21.6-39.7,31.3-64,23.1l-10.8-3.6c-42.5-14.3-88.2,11.3-96.6,54.1
		l-2.2,10.9c-4.8,24.5-26.9,42.2-52.7,42.2h-38.9c-25.7,0-47.8-17.7-52.7-42.2l-2.2-10.9c-8.5-42.8-54.1-68.4-96.6-54.1l-10.8,3.6
		c-24.3,8.2-51.2-1.5-64-23.1l-19.4-32.6c-12.9-21.6-8.1-49,11.4-65.3l8.7-7.3c34-28.5,34-79.7,0-108.2l-8.7-7.3
		c-19.5-16.3-24.2-43.7-11.4-65.3l19.4-32.6c12.9-21.6,39.7-31.3,64-23.1l10.8,3.6c42.5,14.3,88.2-11.3,96.6-54.1l2.2-10.9
		c4.8-24.5,26.9-42.2,52.7-42.2h38.9c25.7,0,47.8,17.7,52.7,42.2l2.2,10.9c8.5,42.8,54.1,68.4,96.6,54.1l10.8-3.6
		c24.3-8.2,51.2,1.5,64,23.1l19.4,32.6c12.9,21.6,8.1,49-11.4,65.3l-8.7,7.3c-34,28.5-34,79.7,0,108.2l8.7,7.3
		C618.2,422.6,623,450,610.1,471.6z"/>
</g>
</svg>
