<?xml version="1.0" encoding="utf-8"?>
<!-- Generator: Adobe Illustrator 22.0.1, SVG Export Plug-In . SVG Version: 6.00 Build 0)  -->
<svg version="1.1" id="Layer_1" xmlns="http://www.w3.org/2000/svg" xmlns:xlink="http://www.w3.org/1999/xlink" x="0px" y="0px"
	 viewBox="0 0 689.9 689.8" style="enable-background:new 0 0 689.9 689.8;" xml:space="preserve">
<path d="M345,0C155.8-0.4,0.9,153,0,343.3c-0.9,189.5,151.8,346,343.9,346.6c191.3,0.6,346-153.9,346-344.7
	C690,152.2,533.3-0.4,345,0z M604.6,345.4c-7.6,0-15.1,0-22.7,0c-16.9,0-33.7,0-50.6,0c-1.3,0-2.5,0-3.9,0.1
	c-0.2,0.8-0.3,1.3-0.4,1.9c-0.1,1.2,0,2.3,0,3.5c0,64.8,0,129.5,0,194.3c0,1.5-0.1,3,0,4.5c0,7.6-5.8,16.2-15.8,18.4
	c-1.7,0.4-3.5,0.5-5.2,0.5c-35.6,0-71.2,0-106.7,0c-0.9,0-1.8,0-3.1,0c-0.1-1-0.3-1.5-0.3-2.1c0-1.2,0-2.3,0-3.5c0-48,0-96,0-144.1
	c0-1.4,0-2.8,0-4.2c-0.1-7.4-6.7-14.5-14.7-14.4c-0.9,0-1.9,0-2.8,0c-24.5,0-49.1,0-73.6,0c-1,0-2.1,0-3.1,0
	c-7.4,0-13.6,6.5-14.2,13.3c-0.1,1.6-0.2,3.3-0.2,4.9c0,48.4,0,96.7,0,145.1c0,1.5,0.2,3-0.3,4.5c-1.3,0.5-2.6,0.3-3.8,0.3
	c-16.4,0-32.8,0-49.2,0c-19.3,0-38.6,0-57.9,0c-2.8,0-5.6-0.3-8.2-1.2c-8.1-2.8-13.3-9.9-13.5-18.5c0-1.3,0-2.6,0-3.8
	c0-64.9,0-129.8,0-194.6c0-1.5,0-3-0.1-4.7c-1.1-0.1-2-0.3-2.9-0.3c-6,0-12.1,0-18.1,0c-17.8,0-35.6,0-53.4,0c-1.3,0-2.5,0-3.7,0
	c-0.4-1.3,0.6-1.6,1.1-2.1c7-6,13.9-12,20.9-17.9c36.2-31,72.4-62,108.7-93c36.4-31.1,72.8-62.3,109.2-93.4
	c5.7-4.9,11.5-9.8,17.2-14.7c1.3-1.1,2.7-2.2,4.1-3.5c26.5,22,52.8,43.9,79.2,65.8c0.8-1.2,0.6-2.2,0.6-3.1c0-12.4,0-24.9,0-37.3
	c0-0.9,0-1.9,0-2.8c0.3-4.6,3.8-8.3,8.4-8.8c0.9-0.1,1.9,0,2.8,0c19.5,0,39.1,0,58.6,0c0.7,0,1.4,0,2.1,0c5.1,0.3,8.9,4,9.2,9.2
	c0.1,1.2,0,2.3,0,3.5c0,34.3,0,68.6,0,102.9c0,1.4,0,2.8,0,4.3c36.1,30,72.2,60,108.2,90C606,345.7,605.2,345.4,604.6,345.4z"/>
</svg>
